<svg version="1" xmlns="http://www.w3.org/2000/svg" width="341.333" height="341.333" viewBox="0 0 256.000000 256.000000"><path d="M161.4 1.8c-3.4 1.8-7.5 6.2-6.8 7.4.3.4-.1.8-.8.8-.8 0-.9.3-.3.8.6.4 1 1.6 1 2.7 0 1.5-2 3-7.7 5.9-7.6 3.7-7.8 3.9-7.2 7 .4 1.7.8 4 1 5.1.5 3 1.2 6 1.4 6 .1 0 .3.8.5 1.8.2 1.2 0 1.5-.8.9-1.2-.8-2.5-.8-8.7.2-1.9.3-4.8.8-6.5 1-1.6.3-6.4 1.7-10.5 3.1-4.6 1.7-9.7 2.7-13.2 2.7-9.9.1-19.5 6.8-21.9 15.2-.6 2.1-.8 4.4-.6 5 .3.7.1 1.9-.3 2.6-.5.7-.4 2.4.1 3.7.5 1.2.5 2.3.1 2.3-.9 0-4.4 5.6-4.2 6.6.1.4-.3 1-1 1.4-.6.4-1.2 1.4-1.4 2.2-.1.9-.7 2.3-1.4 3.1-.7.8-1.5 2.4-1.7 3.5-.2 1.2-.9 3.1-1.6 4.4-.8 1.3-1.4 2.5-1.4 2.8-.1.3-.4 1.4-.8 2.5-.7 2.1-1.3 5.2-2.4 12.5-.8 5.1-.8 19.9 0 24.6.8 4.8 6.7 21.7 8.2 23.2 1.4 1.5.1 6.6-2.5 9.7-1.4 1.7-1.3 1.7.8.6 1.2-.6 2.2-.9 2.2-.6 0 .4.7-.1 1.6-1 1.5-1.5 1.7-1.5 2.9.2.6 1 1.8 4 2.5 6.8 2.2 8.7 4.3 15 5.1 15.9 1.4 1.6 1 4.3-.6 5-.8.3-1.5.1-1.5-.3 0-.5.6-1.1 1.3-1.4.6-.2.9-.8.5-1.2-1-1.1-6.6 1.4-9.4 4.2-1.3 1.3-2.4 2.3-2.5 2.1 0-.2-.2-1.2-.3-2.3-.3-1.9-1.2-7.2-2.1-12.7-.3-1.5-1-4-1.6-5.5-.6-1.5-1-2.8-.9-2.8.1 0-.3-1.3-.9-2.8-.6-1.6-1.1-3.3-1.1-3.9 0-2.5-4.5-8.8-6.2-8.8-1.1 0-1.7.4-1.4.8.3.5.6 2.9.7 5.5.2 2.6.5 4.7.8 4.7.3 0 .7 3.5.8 7.8l.1 7.7-1.9-5.9c-1.9-5.6-2.8-7.3-7.3-14.3-2.8-4.3-5.6-4.4-5.6-.2 0 2.5 3.3 14.1 5.7 19.9 1.2 2.9 3.2 10.9 3.3 12.7 0 .7-.9 1.3-2 1.3s-2 .5-2 1c0 .6-1.1 1.5-2.5 2-2.3.9-3.3 3.4-2.5 6.5.2.5.7 3.2 1.2 6 .5 2.7 1.4 5.5 1.9 6.1.5.6.6 1.3.3 1.7-.3.3.6 2.9 2.1 5.8 1.9 3.9 2.5 6.2 2.1 8.8-.3 2-.5 4.6-.6 5.8 0 1.2-1.2 3.5-2.6 5l-2.6 2.8 73.8.3c40.5.1 73.9.1 74.1-.1 1.2-1.3 2.6-12.9 2.7-21.8 0-13.3-1.8-18.6-8.3-24.6-2.5-2.4-6.1-5-7.9-5.9-1.8-.8-3.6-2.2-3.9-3-.3-.7.9-4.1 2.6-7.4 1.7-3.2 3.1-6.5 3.1-7.1 0-.7 1.3-2.5 2.9-4 2.9-2.7 3-2.8 3.7-.7.8 2.7 2.3.5 1.7-2.6-.3-1.3.2-2.9 1-3.8 4.9-4.8 11.8-21.7 13.9-33.5 1.2-7 2-35.6 1.1-37.9-.3-.8-1-1.1-1.7-.7-.8.4-.8.3 0-.6 1.4-1.5.3-7.2-2.9-15.1-2.5-6.4-2.6-7.1-1.4-8.8.6-.7.6-1.2-.1-1.2-.5 0-1.3-.7-1.6-1.6-.3-.8-.2-1.2.4-.9 2.1 1.3 1.4-5.3-.8-7.9-1-1.1-1.1-1.6-.4-1.2 1 .6 1.3.3 1-1-.2-1.1-.9-1.8-1.6-1.7-.6.2-.9-.4-.5-1.3.7-1.9-4.3-6.9-8.8-8.8-3.3-1.3-8.9-1.4-13.7-.2-1.5.3-2 .1-1.6-.6.5-.8.1-.9-1-.5-.9.4-1.5.3-1.2-.2.7-1-8.9-6.3-9.8-5.4-.3.3-.6.2-.6-.4 0-.9-4.9-2.7-13.9-5-3.7-.9-4.4-2.3-5.7-10.8-.3-2.2-.8-4.3-1-4.7-.2-.3 1.2-1.2 3.1-1.9 1.9-.7 3.5-1.7 3.5-2.1 0-.4.9-.8 1.9-.8 1.1 0 2.3-.5 2.6-1 1-1.7 2.3-1.1 5.5 2.4 2.7 3 3.6 3.3 7.8 3.1 8.6-.3 11.8-4.1 11.3-13.5 0-1.4-1.7-4.2-3.5-6.4-3.9-4.3-7.6-5.2-12.2-2.8zm4.3 45.8c-.3.3-1.2.4-1.9.1-.8-.3-.5-.6.6-.6 1.1-.1 1.7.2 1.3.5zm35.7 24c.3.8.2 1.2-.4.9-.6-.3-1-1-1-1.6 0-1.4.7-1.1 1.4.7z"/></svg>